# xmcd
#
# Track frame offsets:
#	150
#	22228
#	45808
#	66710
#	88913
#	110498
#	132703
#	153315
#	175758
#
# Disc length: 2605 seconds
#
# Revision: 8
# Processed by: cddbd v1.5.2PL0 Copyright (c) Steve Scherf et al.
# Submitted via: EasyCDDAExtractor 15.3.0.1
#
DISCID=7e0a2b09
DTITLE=Marc Anthony - Todo A Su Tiempo
DYEAR=1995
DGENRE=Latin
TTITLE0=Se Me Sigue Olvidando
TTITLE1=Te Conozco Bien
TTITLE2=Hasta Ayer
TTITLE3=Nadie Como Ella
TTITLE4=Te Amare
TTITLE5=Llegaste A Mi
TTITLE6=Y Sigues Siendo Tu
TTITLE7=Por Amar Se Da Todo
TTITLE8=Vieja Mesa
EXTD=
EXTT0=
EXTT1=
EXTT2=
EXTT3=
EXTT4=
EXTT5=
EXTT6=
EXTT7=
EXTT8=
PLAYORDER=
